# OBJ written from D:\My_Project_Base\Snapping\data\room_scene\modo_files\floor.obj

o Mesh
v -2.85 -1.425 -2.1
v 2.91 -1.425 -2.1
v 2.91 -1.425 3.505
v -2.85 -1.425 3.505
v 2.91 -1.425 1.8722
v 2.91 -1.425 -1.2072
v -2.85 -1.425 -1.2072
v -2.85 -1.425 3.0922
v 2.91 -1.425 0.3325
v -2.85 -1.425 0.3325
vn 0 1 0
vt 5 1.66667
vt 5 0.711111
vt 2.5 1.66667
vt 2.5 0.711111
vt 2.5 2.62222
vt 5 2.62222
vt 5 0
vt 2.5 0
vt 5 3.33333
vt 2.5 3.33333
mtllib floor.mtl
usemtl Default
g Default
f 9/1/1 6/2/1 10/3/1
f 7/4/1 10/3/1 6/2/1
f 8/5/1 5/6/1 10/3/1
f 9/1/1 10/3/1 5/6/1
f 2/7/1 1/8/1 6/2/1
f 7/4/1 6/2/1 1/8/1
f 5/6/1 8/5/1 3/9/1
f 4/10/1 3/9/1 8/5/1
