# OBJ written from C:\Documents and Settings\admin\Desktop\aa\shinei.obj

o Mesh
mtllib shinei.mtl

o Mesh (2)
v -2.85 -1.425 -2.1
v 2.91 -1.425 -2.1
v 2.91 -1.425 3.505
v -2.85 -1.425 3.505
v -2.85 1.425 -2.1
v 2.91 1.425 -2.1
v 2.91 1.425 3.505
v -2.85 1.425 3.505
v -2.85 1.22 -2.1
v -2.85 -0.74 -2.1
v 2.91 -0.74 -2.1
v 2.91 1.22 -2.1
v 2.91 -0.74 3.505
v 2.91 1.22 3.505
v -2.85 -0.74 3.505
v -2.85 1.22 3.505
v 2.91 -1.425 1.8722
v 2.91 -1.425 -1.2072
v -2.85 -1.425 -1.2072
v -2.85 -1.425 3.0922
v -2.85 1.425 3.0922
v -2.85 1.425 -1.2072
v 2.91 1.425 -1.2072
v 2.91 1.425 1.8722
v -2.85 -0.74 3.0922
v -2.85 -0.74 -1.2072
v -2.85 1.22 -1.2072
v -2.85 1.22 3.0922
v 2.91 1.22 1.8722
v 2.91 1.22 -1.2072
v 7.53 -0.74 -1.2072
v 2.91 -0.74 1.8722
v 4.43 -1.425 -2.1
v 4.43 -0.74 -2.1
v 4.43 1.22 -2.1
v 4.43 -1.425 1.8722
v 4.43 -1.425 -1.2072
v 4.43 1.22 1.8722
v 4.43 1.22 -1.2072
v 4.43 -0.74 1.8722
v 7.53 -1.425 -2.1
v 7.53 -0.74 -2.1
v 7.53 1.22 -2.1
v 7.53 -1.425 1.8722
v 7.53 -1.425 -1.2072
v 7.53 1.22 1.8722
v 7.53 1.22 -1.2072
v 7.53 -0.74 1.8722
v 2.91 -1.425 -4.88
v 2.91 -0.74 -4.88
v 2.91 1.22 -4.88
v 4.43 -1.425 -4.88
v 4.43 -0.74 -4.88
v 4.43 1.22 -4.88
v 2.91 -1.425 0.3325
v -2.85 -1.425 0.3325
v 2.91 1.22 0.3325
v 2.91 1.425 0.3325
v -2.85 1.425 0.3325
v -2.85 1.22 0.3325
v -2.85 -0.74 0.3325
v 4.43 -1.425 0.3325
v 4.43 1.22 0.3325
v 7.53 -1.425 0.3325
v 7.53 1.22 0.3325
v 7.53 -0.74 0.3325
v 4.43 -1.425 -2.934
v 4.43 -0.74 -2.934
v 4.43 1.22 -2.934
v 2.91 1.22 -2.934
v 2.91 -0.74 -2.934
v 2.91 -1.425 -2.934
v 4.72 -1.425 -4.88
v 4.72 -0.74 -4.88
v 4.72 1.22 -4.88
v 4.72 -1.425 -2.934
v 4.72 -0.74 -2.934
v 4.72 1.22 -2.934
v 4.75 -1.459 -5.664
v 4.75 -0.74 -5.664
v 4.75 2.004 -5.664
v 4.75 -1.459 -2.15
v 4.75 -0.74 -2.15
v 4.75 2.004 -2.15
v 7.43 -1.459 -5.664
v 7.43 -0.74 -5.664
v 7.43 2.004 -5.664
v 7.43 -1.459 -2.15
v 7.43 -0.74 -2.15
v 7.43 2.004 -2.15
v 2.91 1.22 -4.2962
v 4.43 1.22 -4.2962
v 2.91 -0.74 -4.2962
v 2.91 -1.425 -4.2962
v 4.43 -1.425 -4.2962
v 4.72 1.22 -4.2962
v 4.72 -1.425 -4.2962
v 4.75 2.004 -4.6098
v 4.75 -1.459 -4.6098
v 7.43 2.004 -4.6098
v 7.43 -1.459 -4.6098
v 7.43 -0.74 -4.6098
v 2.91 1.22 -3.45164
v 4.43 1.22 -3.45164
v 2.91 -0.74 -3.45164
v 2.91 -1.425 -3.45164
v 4.43 -1.425 -3.45164
v 4.72 1.22 -3.45164
v 4.72 -1.425 -3.45164
v 4.75 2.004 -3.08472
v 4.75 -1.459 -3.08472
v 7.43 2.004 -3.08472
v 7.43 -1.459 -3.08472
v 7.43 -0.74 -3.08472
v -2.85 1.425 -2.1
v 2.91 1.425 -2.1
v 2.91 1.425 3.505
v -2.85 1.425 3.505
v -2.85 1.425 3.0922
v -2.85 1.425 -1.2072
v 2.91 1.425 -1.2072
v 2.91 1.425 1.8722
v 2.91 1.425 0.3325
v -2.85 1.425 0.3325
v -2.85 1.40144 -2.1
v 2.91 1.40144 -2.1
v 2.91 1.40144 3.505
v -2.85 1.40144 3.505
v -2.85 1.40144 3.0922
v -2.85 1.40144 -1.2072
v 2.91 1.40144 -1.2072
v 2.91 1.40144 1.8722
v 2.91 1.40144 0.3325
v -2.85 1.40144 0.3325
v -2.83863 1.40029 -2.08863
v 2.89863 1.40029 -2.08863
v 2.89863 1.40029 3.49363
v -2.83863 1.40029 3.49363
v -2.83863 1.40029 3.0922
v -2.83863 1.40029 -1.2072
v 2.89863 1.40029 -1.2072
v 2.89863 1.40029 1.8722
v 2.89863 1.40029 0.3325
v -2.83863 1.40029 0.3325
v -2.82803 1.397 -2.07803
v 2.88803 1.397 -2.07803
v 2.88803 1.397 3.48303
v -2.82803 1.397 3.48303
v -2.82803 1.397 3.0922
v -2.82803 1.397 -1.2072
v 2.88803 1.397 -1.2072
v 2.88803 1.397 1.8722
v 2.88803 1.397 0.3325
v -2.82803 1.397 0.3325
v -2.81845 1.3918 -2.06845
v 2.87845 1.3918 -2.06845
v 2.87845 1.3918 3.47345
v -2.81845 1.3918 3.47345
v -2.81845 1.3918 3.0922
v -2.81845 1.3918 -1.2072
v 2.87845 1.3918 -1.2072
v 2.87845 1.3918 1.8722
v 2.87845 1.3918 0.3325
v -2.81845 1.3918 0.3325
v -2.81009 1.38491 -2.06009
v 2.87009 1.38491 -2.06009
v 2.87009 1.38491 3.46509
v -2.81009 1.38491 3.46509
v -2.81009 1.38491 3.0922
v -2.81009 1.38491 -1.2072
v 2.87009 1.38491 -1.2072
v 2.87009 1.38491 1.8722
v 2.87009 1.38491 0.3325
v -2.81009 1.38491 0.3325
v -2.8032 1.37655 -2.0532
v 2.8632 1.37655 -2.0532
v 2.8632 1.37655 3.4582
v -2.8032 1.37655 3.4582
v -2.8032 1.37655 3.0922
v -2.8032 1.37655 -1.2072
v 2.8632 1.37655 -1.2072
v 2.8632 1.37655 1.8722
v 2.8632 1.37655 0.3325
v -2.8032 1.37655 0.3325
v -2.798 1.36697 -2.048
v 2.858 1.36697 -2.048
v 2.858 1.36697 3.453
v -2.798 1.36697 3.453
v -2.798 1.36697 3.0922
v -2.798 1.36697 -1.2072
v 2.858 1.36697 -1.2072
v 2.858 1.36697 1.8722
v 2.858 1.36697 0.3325
v -2.798 1.36697 0.3325
v -2.79471 1.35637 -2.04471
v 2.85471 1.35637 -2.04471
v 2.85471 1.35637 3.44971
v -2.79471 1.35637 3.44971
v -2.79471 1.35637 3.0922
v -2.79471 1.35637 -1.2072
v 2.85471 1.35637 -1.2072
v 2.85471 1.35637 1.8722
v 2.85471 1.35637 0.3325
v -2.79471 1.35637 0.3325
v -2.79357 1.345 -2.04357
v 2.85357 1.345 -2.04357
v 2.85357 1.345 3.44857
v -2.79357 1.345 3.44857
v -2.79357 1.345 3.0922
v -2.79357 1.345 -1.2072
v 2.85357 1.345 -1.2072
v 2.85357 1.345 1.8722
v 2.85357 1.345 0.3325
v -2.79357 1.345 0.3325
v -2.74366 1.345 -1.99366
v 2.80366 1.345 -1.99366
v 2.80366 1.345 3.39866
v -2.74366 1.345 3.39866
v -2.74366 1.345 3.0922
v -2.74366 1.345 -1.2072
v 2.80366 1.345 -1.2072
v 2.80366 1.345 1.8722
v 2.80366 1.345 0.3325
v -2.74366 1.345 0.3325
v -2.85 -1.425 -2.1
v 2.91 -1.425 -2.1
v 2.91 -1.425 3.505
v -2.85 -1.425 3.505
v 2.91 -1.425 1.8722
v 2.91 -1.425 -1.2072
v -2.85 -1.425 -1.2072
v -2.85 -1.425 3.0922
v 2.91 -1.425 0.3325
v -2.85 -1.425 0.3325
vn 0 0 -1
vn -1 0 0
vn 0 1 0
vn 0 0 1
vn 0.999269 0 0.0382376
vn 0.999269 0 0.0382376
vn 1 0 0
vn 0.999269 -0.0382376 0
vn 0.999634 -0.0191258 0.0191258
vn 0.999634 -0.0191258 0.0191258
vn 0.749835 0.661625 0
vn 0 -1 0
vn -0.199373 -0.979924 0
vn -0.10029 -0.994958 0
vn -0.232101 -0.972692 0
vn 0.199373 -0.979924 0
vn 0.10029 -0.994958 0
vn -0.388612 -0.921402 0
vn -0.186313 -0.958055 0.217758
vn -0.0840739 -0.989537 0.117255
vn -0.185124 -0.965121 -0.185124
vn -0.0837926 -0.992954 -0.0837926
vn 0.0840739 -0.989537 -0.117255
vn 0.186313 -0.958055 -0.217758
vn 0.185124 -0.965121 0.185124
vn 0.418628 -0.908158 0
vn 0.232101 -0.972692 0
vn 0.0837926 -0.992954 0.0837926
vn -0.55931 -0.828958 0
vn -0.418628 -0.908158 0
vn -0.585694 -0.810532 0
vn 0.55931 -0.828958 0
vn 0.388612 -0.921402 0
vn -0.707107 -0.707106 0
vn -0.684165 -0.729327 0
vn -0.532348 -0.846526 0
vn 0 -0.729327 -0.684165
vn 0 -0.846526 -0.532347
vn 0 -0.810532 -0.585694
vn 0 -0.684164 -0.729328
vn 0.684165 -0.729327 0
vn 0.729328 -0.684164 0
vn 0.585694 -0.810532 0
vn 0.532348 -0.846526 0
vn -0.828956 -0.559314 0
vn -0.707107 -0.707106 0
vn -0.729328 -0.684164 0
vn -0.846523 -0.532353 0
vn 0.828956 -0.559314 0
vn 0.707107 -0.707106 0
vn -0.921397 -0.388623 0
vn -0.908153 -0.418638 0
vn -0.810531 -0.585696 0
vn 0 -0.418638 -0.908153
vn 0 -0.585696 -0.810531
vn 0 -0.532353 -0.846523
vn 0 -0.358189 -0.933649
vn 0.908153 -0.418638 0
vn 0.933649 -0.358189 0
vn 0.846523 -0.532353 0
vn 0.810531 -0.585696 0
vn -0.979922 -0.199383 0
vn -0.933649 -0.358189 0
vn -0.986053 -0.166429 0
vn 0.979922 -0.199383 0
vn 0.921397 -0.388623 0
vn -0.994958 -0.100297 0
vn -0.979922 -0.199383 0
vn -0.972689 -0.232113 0
vn 0 -0.100297 -0.994958
vn 0 -0.232113 -0.972689
vn 0 -0.166429 -0.986053
vn 0.994958 -0.100297 0
vn 0.994958 -0.100297 0
vn 0.986053 -0.166429 0
vn 0.972689 -0.232113 0
vn 0.749835 0.661625 0
vn -0.10029 -0.994958 0
vn 0.0335051 -0.99719 -0.0670103
vn 0.419538 -0.898974 -0.125832
vn 0 -0.729327 0.684165
vn 0 -0.846526 0.532347
vn 0 -0.810532 0.585694
vn 0 -0.684164 0.729328
vn -0.684165 -0.729327 0
vn 0 -0.418638 0.908153
vn 0 -0.585696 0.810531
vn 0 -0.532353 0.846523
vn 0 -0.358189 0.933649
vn 0 -0.100297 0.994958
vn 0 -0.232113 0.972689
vn 0 -0.166429 0.986053
vn -0.994958 -0.100297 0
vn -0.972689 -0.232113 0
vn 0.999269 0 -0.0382376
vn 0.999634 -0.0191258 -0.0191258
vn 0.999634 -0.0191258 -0.0191258
vn 0.999269 -0.0382376 0
vn -0.0335051 -0.99719 0.0670103
vn -0.0502718 -0.99747 -0.0502718
vn 0.0502718 -0.99747 0.0502718
vn -0.419538 -0.898974 0.125832
vn -0.204256 -0.917788 -0.340506
vn 0.206049 -0.90262 -0.377916
vn 0.340506 -0.917788 0.204256
vn 0.999269 0 -0.0382376
vn 0.204256 -0.917788 0.340506
vn -0.206049 -0.90262 0.377916
vn -0.340506 -0.917788 -0.204256
vt 1 0.433988
vt 1 0.159286
vt 0 0.433988
vt 0 0.159286
vt 0 0.926351
vt 1 0.708689
vt 1 0
vt 0 0
vt 1 1
vt 0 1
mtllib shinei.mtl
usemtl Default
g Default
f 36//1 40//1 44//1
f 48//1 44//1 40//1
f 42//2 41//2 31//2
f 45//2 31//2 41//2
f 57//2 29//2 58//2
f 24//2 58//2 29//2
f 64//3 45//3 62//3
f 37//3 62//3 45//3
f 48//2 66//2 44//2
f 64//2 44//2 66//2
f 53//4 52//4 74//4
f 73//4 74//4 52//4
f 79//5 80//6 73//5
f 74//6 73//5 80//6
f 80//4 79//4 86//4
f 85//4 86//4 79//4
f 94//7 49//7 93//7
f 50//7 93//7 49//7
f 96//8 75//9 98//8
f 81//10 98//8 75//9
f 102//2 86//2 101//2
f 85//2 101//2 86//2
f 71//7 105//7 70//7
f 103//7 70//7 105//7
f 107//3 95//3 106//3
f 94//3 106//3 95//3
f 109//3 97//3 107//3
f 95//3 107//3 97//3
f 111//11 99//11 109//11
f 97//11 109//11 99//11
f 113//3 101//3 111//3
f 99//3 111//3 101//3
usemtl wall
f 29//2 32//2 14//2
f 13//2 14//2 32//2
f 32//1 29//1 40//1
f 38//1 40//1 29//1
f 39//12 63//12 30//12
f 57//12 30//12 63//12
f 69//12 35//12 70//12
f 12//12 70//12 35//12
f 67//3 107//3 72//3
f 106//3 72//3 107//3
usemtl floor
f 233//3 230//3 234//3
f 231//3 234//3 230//3
usemtl wall1
f 124//3 59//3 22//3
f 22//3 120//3 124//3
f 121//3 23//3 58//3
f 58//3 123//3 121//3
f 118//2 119//2 128//2
f 129//2 128//2 119//2
f 125//1 115//1 116//1
f 116//1 126//1 125//1
f 122//7 117//7 132//7
f 127//7 132//7 117//7
f 1//4 2//4 10//4
f 11//4 10//4 2//4
f 28//7 21//7 16//7
f 8//7 16//7 21//7
f 59//7 21//7 60//7
f 28//7 60//7 21//7
f 20//7 25//7 4//7
f 15//7 4//7 25//7
f 144//13 134//14 130//14
f 130//14 140//15 144//13
f 141//16 131//17 133//17
f 133//17 143//16 141//16
f 149//18 148//19 139//13
f 138//20 139//13 148//19
f 145//21 135//22 136//23
f 136//23 146//24 145//21
f 147//25 152//26 142//27
f 142//27 137//28 147//25
f 164//29 154//18 150//30
f 150//30 160//31 164//29
f 161//32 151//33 153//33
f 153//33 163//32 161//32
f 169//34 168//35 159//29
f 158//36 159//29 168//35
f 165//37 155//38 156//39
f 156//39 166//40 165//37
f 167//41 172//42 162//43
f 162//43 157//44 167//41
f 184//45 174//46 170//47
f 170//47 180//48 184//45
f 181//49 171//50 173//50
f 173//50 183//49 181//49
f 189//51 188//52 179//45
f 178//53 179//45 188//52
f 185//54 175//55 176//56
f 176//56 186//57 185//54
f 187//58 192//59 182//60
f 182//60 177//61 187//58
f 204//62 194//51 190//63
f 190//63 200//64 204//62
f 201//65 191//66 193//66
f 193//66 203//65 201//65
f 209//67 208//67 199//68
f 198//69 199//68 208//67
f 205//70 195//71 196//72
f 196//72 206//70 205//70
f 207//73 212//74 202//75
f 202//75 197//76 207//73
f 214//12 210//12 224//12
f 220//12 224//12 210//12
f 211//12 213//12 221//12
f 223//12 221//12 213//12
f 215//12 216//12 220//12
f 221//12 220//12 216//12
usemtl Default
f 33//3 37//3 41//3
f 45//3 41//3 37//3
f 43//2 42//2 47//2
f 31//2 47//2 42//2
f 30//2 57//2 23//2
f 58//2 23//2 57//2
f 44//3 64//3 36//3
f 62//3 36//3 64//3
f 46//2 65//2 48//2
f 66//2 48//2 65//2
f 54//4 53//4 75//4
f 74//4 75//4 53//4
f 74//6 80//6 75//9
f 81//10 75//9 80//6
f 81//4 80//4 87//4
f 86//4 87//4 80//4
f 93//7 50//7 91//7
f 51//7 91//7 50//7
f 97//3 73//3 95//3
f 52//3 95//3 73//3
f 101//3 85//3 99//3
f 79//3 99//3 85//3
f 103//12 91//12 104//12
f 92//12 104//12 91//12
f 106//7 94//7 105//7
f 93//7 105//7 94//7
f 76//3 109//3 67//3
f 107//3 67//3 109//3
f 109//11 76//11 111//11
f 82//77 111//11 76//11
f 88//3 113//3 82//3
f 111//3 82//3 113//3
f 90//2 112//2 89//2
f 114//2 89//2 112//2
usemtl wall
f 17//1 32//1 36//1
f 40//1 36//1 32//1
f 35//4 34//4 43//4
f 42//4 43//4 34//4
f 68//2 34//2 69//2
f 35//2 69//2 34//2
f 72//3 2//3 67//3
f 33//3 67//3 2//3
usemtl floor
f 232//3 229//3 234//3
f 233//3 234//3 229//3
usemtl wall1
f 119//3 21//3 59//3
f 59//3 124//3 119//3
f 116//3 6//3 23//3
f 23//3 121//3 116//3
f 127//4 117//4 118//4
f 118//4 128//4 127//4
f 120//2 115//2 130//2
f 125//2 130//2 115//2
f 123//7 122//7 133//7
f 132//7 133//7 122//7
f 9//4 12//4 5//4
f 6//4 5//4 12//4
f 10//7 9//7 26//7
f 27//7 26//7 9//7
f 22//7 59//7 27//7
f 60//7 27//7 59//7
f 25//7 28//7 15//7
f 16//7 15//7 28//7
f 139//13 129//78 134//14
f 134//14 144//13 139//13
f 141//16 136//23 131//17
f 126//79 131//17 136//23
f 147//25 137//28 138//20
f 138//20 148//19 147//25
f 150//30 140//15 145//21
f 135//22 145//21 140//15
f 153//33 143//16 142//27
f 142//27 152//26 153//33
f 159//29 149//18 154//18
f 154//18 164//29 159//29
f 161//32 156//80 151//33
f 146//24 151//33 156//80
f 167//81 157//82 158//83
f 158//83 168//84 167//81
f 170//47 160//31 165//85
f 155//36 165//85 160//31
f 173//50 163//32 162//43
f 162//43 172//42 173//50
f 179//45 169//34 174//46
f 174//46 184//45 179//45
f 181//49 176//61 171//50
f 166//41 171//50 176//61
f 187//86 177//87 178//88
f 178//88 188//89 187//86
f 190//63 180//48 185//52
f 175//53 185//52 180//48
f 193//66 183//49 182//60
f 182//60 192//59 193//66
f 199//68 189//51 194//51
f 194//51 204//62 199//68
f 201//65 196//76 191//66
f 186//58 191//66 196//76
f 207//90 197//91 198//92
f 198//92 208//90 207//90
f 210//93 200//64 205//67
f 195//94 205//67 200//64
f 213//74 203//65 202//75
f 202//75 212//74 213//74
f 209//12 214//12 219//12
f 224//12 219//12 214//12
f 221//12 216//12 211//12
f 206//12 211//12 216//12
f 222//12 217//12 219//12
f 218//12 219//12 217//12
usemtl Default
f 2//3 18//3 33//3
f 37//3 33//3 18//3
f 39//12 35//12 47//12
f 43//12 47//12 35//12
f 50//4 49//4 53//4
f 52//4 53//4 49//4
f 62//3 37//3 55//3
f 18//3 55//3 37//3
f 65//12 46//12 63//12
f 38//12 63//12 46//12
f 68//1 69//1 77//1
f 78//1 77//1 69//1
f 77//95 78//96 83//95
f 84//97 83//95 78//96
f 83//1 84//1 89//1
f 90//1 89//1 84//1
f 91//12 51//12 92//12
f 54//12 92//12 51//12
f 92//12 54//12 96//12
f 75//12 96//12 54//12
f 98//12 81//12 100//12
f 87//12 100//12 81//12
f 70//12 103//12 69//12
f 104//12 69//12 103//12
f 72//7 106//7 71//7
f 105//7 71//7 106//7
f 104//12 92//12 108//12
f 96//12 108//12 92//12
f 98//8 110//98 96//8
f 108//98 96//8 110//98
f 110//12 98//12 112//12
f 100//12 112//12 98//12
f 114//2 102//2 113//2
f 101//2 113//2 102//2
usemtl wall
f 32//2 17//2 13//2
f 3//2 13//2 17//2
f 34//4 33//4 42//4
f 41//4 42//4 33//4
f 67//2 33//2 68//2
f 34//2 68//2 33//2
f 71//7 11//7 72//7
f 2//7 72//7 11//7
usemtl floor
f 226//3 225//3 230//3
f 231//3 230//3 225//3
usemtl wall1
f 118//3 8//3 21//3
f 21//3 119//3 118//3
f 115//3 5//3 6//3
f 6//3 116//3 115//3
f 122//3 24//3 7//3
f 7//3 117//3 122//3
f 124//2 120//2 134//2
f 130//2 134//2 120//2
f 121//7 123//7 131//7
f 133//7 131//7 123//7
f 12//4 9//4 11//4
f 10//4 11//4 9//4
f 3//1 4//1 13//1
f 15//1 13//1 4//1
f 1//7 10//7 19//7
f 26//7 19//7 10//7
f 56//7 19//7 61//7
f 26//7 61//7 19//7
f 139//13 138//20 129//78
f 128//99 129//78 138//20
f 135//22 125//100 126//79
f 126//79 136//23 135//22
f 137//28 142//27 132//17
f 132//17 127//101 137//28
f 154//18 144//13 140//15
f 140//15 150//30 154//18
f 151//33 141//16 143//16
f 143//16 153//33 151//33
f 159//29 158//102 149//18
f 148//19 149//18 158//102
f 155//103 145//21 146//24
f 146//24 156//104 155//103
f 157//105 162//43 152//26
f 152//26 147//25 157//105
f 174//46 164//29 160//31
f 160//31 170//47 174//46
f 171//50 161//32 163//32
f 163//32 173//50 171//50
f 179//45 178//53 169//34
f 168//35 169//34 178//53
f 175//55 165//37 166//40
f 166//40 176//56 175//55
f 177//61 182//60 172//42
f 172//42 167//41 177//61
f 194//51 184//45 180//48
f 180//48 190//63 194//51
f 191//66 181//49 183//49
f 183//49 193//66 191//66
f 199//68 198//69 189//51
f 188//52 189//51 198//69
f 195//71 185//54 186//57
f 186//57 196//72 195//71
f 197//76 202//75 192//59
f 192//59 187//58 197//76
f 214//93 204//62 200//64
f 200//64 210//93 214//93
f 211//74 201//65 203//65
f 203//65 213//74 211//74
f 219//12 218//12 209//12
f 208//12 209//12 218//12
f 215//12 205//12 206//12
f 206//12 216//12 215//12
f 222//12 212//12 217//12
f 207//12 217//12 212//12
f 219//12 224//12 222//12
f 223//12 222//12 224//12
usemtl Default
f 6//2 12//2 23//2
f 30//2 23//2 12//2
f 40//1 38//1 48//1
f 46//1 48//1 38//1
f 51//4 50//4 54//4
f 53//4 54//4 50//4
f 36//3 62//3 17//3
f 55//3 17//3 62//3
f 47//12 65//12 39//12
f 63//12 39//12 65//12
f 66//2 31//2 64//2
f 45//2 64//2 31//2
f 67//1 68//1 76//1
f 77//1 76//1 68//1
f 82//106 76//106 83//95
f 77//95 83//95 76//106
f 82//1 83//1 88//1
f 89//1 88//1 83//1
f 95//3 52//3 94//3
f 49//3 94//3 52//3
f 97//11 99//11 73//77
f 79//77 73//77 99//11
f 100//2 87//2 102//2
f 86//2 102//2 87//2
f 105//7 93//7 103//7
f 91//7 103//7 93//7
f 69//12 104//12 78//12
f 108//12 78//12 104//12
f 108//98 110//98 78//96
f 84//97 78//96 110//98
f 84//12 110//12 90//12
f 112//12 90//12 110//12
f 89//2 114//2 88//2
f 113//2 88//2 114//2
usemtl wall
f 24//2 29//2 7//2
f 14//2 7//2 29//2
f 30//12 12//12 39//12
f 35//12 39//12 12//12
f 63//12 38//12 57//12
f 29//12 57//12 38//12
f 70//7 12//7 71//7
f 11//7 71//7 12//7
usemtl floor
f 229//3 232//3 227//3
f 228//3 227//3 232//3
usemtl wall1
f 117//3 7//3 8//3
f 8//3 118//3 117//3
f 120//3 22//3 5//3
f 5//3 115//3 120//3
f 123//3 58//3 24//3
f 24//3 122//3 123//3
f 129//2 119//2 124//2
f 124//2 134//2 129//2
f 116//7 121//7 126//7
f 131//7 126//7 121//7
f 16//1 14//1 15//1
f 13//1 15//1 14//1
f 14//1 16//1 7//1
f 8//1 7//1 16//1
f 9//7 5//7 27//7
f 22//7 27//7 5//7
f 20//7 56//7 25//7
f 61//7 25//7 56//7
f 137//28 127//101 128//99
f 128//99 138//20 137//28
f 140//15 130//14 135//22
f 125//100 135//22 130//14
f 143//16 133//17 132//17
f 132//17 142//27 143//16
f 149//18 139//13 144//13
f 144//13 154//18 149//18
f 151//33 146//24 141//16
f 136//23 141//16 146//24
f 157//107 147//25 148//19
f 148//19 158//108 157//107
f 160//31 150//30 155//109
f 145//21 155//109 150//30
f 163//32 153//33 152//26
f 152//26 162//43 163//32
f 169//34 159//29 164//29
f 164//29 174//46 169//34
f 171//50 166//41 161//32
f 156//44 161//32 166//41
f 177//87 167//81 168//84
f 168//84 178//88 177//87
f 180//48 170//47 175//53
f 165//85 175//53 170//47
f 183//49 173//50 172//42
f 172//42 182//60 183//49
f 189//51 179//45 184//45
f 184//45 194//51 189//51
f 191//66 186//58 181//49
f 176//61 181//49 186//58
f 197//91 187//86 188//89
f 188//89 198//92 197//91
f 200//64 190//63 195//94
f 185//52 195//94 190//63
f 203//65 193//66 192//59
f 192//59 202//75 203//65
f 209//67 199//68 204//62
f 204//62 214//93 209//67
f 211//74 206//73 201//65
f 196//76 201//65 206//73
f 217//12 207//12 208//12
f 208//12 218//12 217//12
f 220//12 210//12 215//12
f 205//12 215//12 210//12
f 213//12 212//12 223//12
f 222//12 223//12 212//12
f 221//12 223//12 220//12
f 224//12 220//12 223//12
